<?xml version="1.0" standalone="no"?>
<!DOCTYPE svg PUBLIC "-//W3C//DTD SVG 20010904//EN"
 "http://www.w3.org/TR/2001/REC-SVG-20010904/DTD/svg10.dtd">
<svg version="1.0" xmlns="http://www.w3.org/2000/svg"
 width="400.000000pt" height="400.000000pt" viewBox="0 0 400.000000 400.000000"
 preserveAspectRatio="xMidYMid meet">
<metadata>
Created by potrace 1.11, written by Peter Selinger 2001-2013
</metadata>
<g transform="translate(0.000000,400.000000) scale(0.100000,-0.100000)"
fill="#000000" stroke="none">
<path d="M483 2529 c-185 -39 -305 -105 -387 -212 -167 -219 38 -583 439 -782
231 -114 478 -156 674 -114 203 44 324 144 428 354 34 69 79 193 88 247 7 39
5 38 120 54 94 14 286 8 385 -12 8 -1 18 -3 21 -3 4 -1 14 -33 24 -73 9 -39
32 -107 51 -151 109 -260 253 -383 494 -423 56 -10 192 -10 245 -1 22 4 56 9
75 12 117 19 309 95 429 170 270 168 427 434 372 631 -40 145 -242 280 -468
311 -111 15 -386 9 -494 -12 -13 -3 -47 -9 -76 -14 -201 -38 -518 -170 -586
-245 -15 -16 -36 -57 -46 -91 -12 -39 -23 -59 -31 -57 -104 24 -439 22 -480
-3 -12 -7 -29 11 -33 35 -7 39 -33 92 -59 122 -54 62 -355 192 -521 224 -10 2
-27 6 -37 9 -10 3 -31 7 -46 9 -16 2 -40 7 -54 10 -55 13 -112 18 -270 21
-136 3 -181 0 -257 -16z"/>
</g>
</svg>
