
<svg width="225px" height="225px" viewBox="0 0 225 225" version="1.1" xmlns="http://www.w3.org/2000/svg" xmlns:xlink="http://www.w3.org/1999/xlink">
    <g id="Mockup-1-Symbols" stroke="none" stroke-width="1" fill="none" fill-rule="evenodd">
        <g id="layout-/-header-blank" transform="translate(-765.000000, -473.000000)">
            <g id="Pill" transform="translate(770.000000, 478.000000)">
                <circle id="Active" stroke="#2274C2" stroke-width="10" cx="107.5" cy="107.5" r="107.5"></circle>
                <g id="pill" transform="translate(59.000000, 37.000000)" fill="#2274C2" fill-rule="nonzero">
                    <path d="M73.9667917,0.00168855535 C67.8637899,0.00168855535 62.3409006,2.46998124 58.3427767,6.47429644 L6.47485929,58.3425891 C2.47636023,62.3412758 0.00243902439,67.8639775 0.00243902439,73.9613508 C0.00243902439,79.7478424 2.2272045,85.019137 5.87110694,88.9585366 C5.88874296,88.9763602 7.084803,90.1724203 7.10243902,90.1898687 C11.0422139,93.8307692 16.3071295,96.0585366 22.0934334,96.0585366 C28.2108818,96.0585366 33.7427767,93.5727955 37.7409006,89.5566604 L89.5881801,37.717636 C93.5868668,33.7189493 96.0575985,28.1962477 96.0575985,22.0932458 C96.0575985,9.89230769 86.167167,0.00168855535 73.9667917,0.00168855535 Z M84.3789869,32.5052533 L58.44803,58.4422139 L37.6178236,37.6118199 L63.5515947,11.6804878 C66.3333959,8.8956848 70.0298311,7.36547842 73.9667917,7.36547842 C77.9007505,7.36547842 81.5971857,8.8956848 84.3789869,11.6804878 C87.1639775,14.4594747 88.6939962,18.1589118 88.6939962,22.0928705 C88.6939962,26.0268293 87.1639775,29.7262664 84.3789869,32.5052533 Z" id="Shape"></path>
                </g>
            </g>
        </g>
    </g>
</svg>