<?xml version="1.0" encoding="utf-8"?>
<!-- Generated by IcoMoon.io -->
<!DOCTYPE svg PUBLIC "-//W3C//DTD SVG 1.1//EN" "http://www.w3.org/Graphics/SVG/1.1/DTD/svg11.dtd">
<svg version="1.1" xmlns="http://www.w3.org/2000/svg" xmlns:xlink="http://www.w3.org/1999/xlink" width="768" height="768" viewBox="0 0 768 768">
<g id="icomoon-ignore">
</g>
<path fill="#70bd4e" d="M82.79 757.248l616.090-361.728c3.994-2.458 6.605-6.758 6.605-11.52s-2.611-9.216-6.605-11.52l-616.090-361.728c-4.148-2.458-9.37-2.458-13.516 0s-6.758 6.758-6.758 11.52v723.148c0 4.762 2.611 9.37 6.758 11.52 4.147 2.764 9.37 2.764 13.516 0.308zM89.395 45.773l576.154 338.228-576.154 338.227v-676.454z"></path>
<path fill="#70bd4e" d="M76.186 768c-3.994 0-7.834-1.075-11.366-3.072-6.912-3.84-11.213-11.212-11.213-19.354v-723.302c0-7.987 4.3-15.36 11.213-19.354s15.514-3.994 22.426 0l616.244 361.728c6.758 3.994 11.060 11.366 11.060 19.354 0 7.834-4.148 15.206-11.060 19.354l-616.244 361.728c-3.38 1.997-7.22 2.918-11.059 2.918zM76.032 17.971c-0.768 0-1.536 0.154-2.304 0.614-1.382 0.768-2.15 2.15-2.15 3.686v723.148c0 1.536 0.768 2.918 1.997 3.686l0.46 0.308c1.382 0.768 2.918 0.768 4.3 0l615.936-361.574c1.382-0.768 2.15-2.15 2.15-3.84 0-1.536-0.768-3.072-2.15-3.84l-616.090-361.574c-0.614-0.46-1.382-0.614-2.15-0.614zM80.332 738.048v-708.096l603.034 354.048-603.034 354.048zM98.304 61.44v645.12l549.428-322.56-549.428-322.56z"></path>
</svg>
